<svg width="40" height="40" viewBox="0 0 40 40" fill="none" xmlns="http://www.w3.org/2000/svg">
<rect x="0.5" y="0.5" width="39" height="39" rx="4.5" fill="#3949AB" stroke="#3949AB"/>
<path d="M18 25.1942C18 26.2352 18.8954 27.0791 20 27.0791C21.1046 27.0791 22 26.2352 22 25.1942V21.4245H26C27.1046 21.4245 28 20.5806 28 19.5396C28 18.4986 27.1046 17.6547 26 17.6547H22V13.8849C22 12.8439 21.1046 12 20 12C18.8954 12 18 12.8439 18 13.8849V17.6547L14 17.6547C12.8954 17.6547 12 18.4986 12 19.5396C12 20.5806 12.8954 21.4245 14 21.4245H18V25.1942Z" stroke="#F2F2F2" stroke-width="1.5" stroke-linejoin="round"/>
</svg>
