<svg width="33" height="33" viewBox="0 0 33 33" fill="none" xmlns="http://www.w3.org/2000/svg">
<path d="M9.8999 3.30005C9.02469 3.30005 8.18532 3.64773 7.56645 4.2666C6.94758 4.88547 6.5999 5.72483 6.5999 6.60005V18.15H8.2499V6.60005C8.2499 6.16244 8.42374 5.74276 8.73318 5.43332C9.04261 5.12389 9.4623 4.95005 9.8999 4.95005H21.4499C21.8875 4.95005 22.3072 5.12389 22.6166 5.43332C22.9261 5.74276 23.0999 6.16244 23.0999 6.60005V24.75H18.1499V26.4H24.7499C26.0627 26.4 27.3218 25.8785 28.2501 24.9502C29.1784 24.0219 29.6999 22.7629 29.6999 21.45V18.15H24.7499V6.60005C24.7499 5.72483 24.4022 4.88547 23.7834 4.2666C23.1645 3.64773 22.3251 3.30005 21.4499 3.30005H9.8999ZM28.0499 21.45C28.0499 22.3253 27.7022 23.1646 27.0834 23.7835C26.4645 24.4024 25.6251 24.75 24.7499 24.75V19.8H28.0499V21.45ZM12.3749 8.25005C12.1561 8.25005 11.9463 8.33697 11.7915 8.49169C11.6368 8.6464 11.5499 8.85625 11.5499 9.07505C11.5499 9.29385 11.6368 9.50369 11.7915 9.65841C11.9463 9.81313 12.1561 9.90005 12.3749 9.90005H18.9749C19.1937 9.90005 19.4035 9.81313 19.5583 9.65841C19.713 9.50369 19.7999 9.29385 19.7999 9.07505C19.7999 8.85625 19.713 8.6464 19.5583 8.49169C19.4035 8.33697 19.1937 8.25005 18.9749 8.25005H12.3749ZM11.5499 12.375C11.5499 12.1562 11.6368 11.9464 11.7915 11.7917C11.9463 11.637 12.1561 11.55 12.3749 11.55H18.9749C19.1937 11.55 19.4035 11.637 19.5583 11.7917C19.713 11.9464 19.7999 12.1562 19.7999 12.375C19.7999 12.5939 19.713 12.8037 19.5583 12.9584C19.4035 13.1131 19.1937 13.2 18.9749 13.2H12.3749C12.1561 13.2 11.9463 13.1131 11.7915 12.9584C11.6368 12.8037 11.5499 12.5939 11.5499 12.375ZM14.0249 19.8C14.6813 19.8 15.3108 20.0608 15.775 20.525C16.2391 20.9891 16.4999 21.6186 16.4999 22.275V27.225C16.4999 27.8815 16.2391 28.511 15.775 28.9751C15.3108 29.4393 14.6813 29.7 14.0249 29.7H4.1249C3.46849 29.7 2.83897 29.4393 2.37481 28.9751C1.91066 28.511 1.6499 27.8815 1.6499 27.225V22.275C1.6499 21.6186 1.91066 20.9891 2.37481 20.525C2.83897 20.0608 3.46849 19.8 4.1249 19.8H14.0249ZM14.8499 27.225V25.575C14.1935 25.575 13.564 25.8358 13.0998 26.3C12.6357 26.7641 12.3749 27.3936 12.3749 28.05H14.0249C14.0249 27.8312 14.1118 27.6214 14.2665 27.4667C14.4213 27.312 14.6311 27.225 14.8499 27.225ZM14.8499 22.275C14.6311 22.275 14.4213 22.1881 14.2665 22.0334C14.1118 21.8787 14.0249 21.6689 14.0249 21.45H12.3749C12.3749 22.1065 12.6357 22.736 13.0998 23.2001C13.564 23.6643 14.1935 23.925 14.8499 23.925V22.275ZM4.1249 21.45C4.1249 21.6689 4.03798 21.8787 3.88327 22.0334C3.72855 22.1881 3.51871 22.275 3.2999 22.275V23.925C3.95631 23.925 4.58584 23.6643 5.04999 23.2001C5.51414 22.736 5.7749 22.1065 5.7749 21.45H4.1249ZM3.2999 27.225C3.51871 27.225 3.72855 27.312 3.88327 27.4667C4.03798 27.6214 4.1249 27.8312 4.1249 28.05H5.7749C5.7749 27.3936 5.51414 26.7641 5.04999 26.3C4.58584 25.8358 3.95631 25.575 3.2999 25.575V27.225ZM9.0749 22.275C8.41849 22.275 7.78897 22.5358 7.32481 23C6.86066 23.4641 6.5999 24.0936 6.5999 24.75C6.5999 25.4065 6.86066 26.036 7.32481 26.5001C7.78897 26.9643 8.41849 27.225 9.0749 27.225C9.73131 27.225 10.3608 26.9643 10.825 26.5001C11.2891 26.036 11.5499 25.4065 11.5499 24.75C11.5499 24.0936 11.2891 23.4641 10.825 23C10.3608 22.5358 9.73131 22.275 9.0749 22.275Z" fill="black"/>
</svg>
