<svg width="43" height="44" viewBox="0 0 43 44" fill="none" xmlns="http://www.w3.org/2000/svg">
<rect x="0.5" y="0.5" width="42" height="43" rx="21" fill="#F4F4F4"/>
<rect x="0.5" y="0.5" width="42" height="43" rx="21" stroke="#F0F1FA"/>
<path fill-rule="evenodd" clip-rule="evenodd" d="M29.1464 23.4404C28.8536 23.7333 28.8536 24.2081 29.1464 24.501C29.4393 24.7939 29.9142 24.7939 30.2071 24.501L31.5 23.2081C32.1834 22.5247 32.1834 21.4167 31.5 20.7333L30.2071 19.4404C29.9142 19.1475 29.4393 19.1475 29.1464 19.4404C28.8536 19.7333 28.8536 20.2081 29.1464 20.501L29.8661 21.2207L23.75 21.2207C23.3358 21.2207 23 21.5565 23 21.9707C23 22.3849 23.3358 22.7207 23.75 22.7207L29.8661 22.7207L29.1464 23.4404Z" fill="#8C9293"/>
<path fill-rule="evenodd" clip-rule="evenodd" d="M16.75 30.75L24 30.75C26.6234 30.75 28.75 28.6234 28.75 26C28.75 25.5858 28.4142 25.25 28 25.25C27.5858 25.25 27.25 25.5858 27.25 26C27.25 27.7949 25.7949 29.25 24 29.25L20.2141 29.25C19.3476 30.1733 18.1161 30.75 16.75 30.75ZM20.2141 14.75L24 14.75C25.7949 14.75 27.25 16.2051 27.25 18C27.25 18.4142 27.5858 18.75 28 18.75C28.4142 18.75 28.75 18.4142 28.75 18C28.75 15.3766 26.6234 13.25 24 13.25L16.75 13.25C18.1161 13.25 19.3476 13.8267 20.2141 14.75Z" fill="#8C9293"/>
<path opacity="0.4" fill-rule="evenodd" clip-rule="evenodd" d="M12 18C12 15.3766 14.1266 13.25 16.75 13.25C19.3734 13.25 21.5 15.3766 21.5 18L21.5 26C21.5 28.6234 19.3734 30.75 16.75 30.75C14.1266 30.75 12 28.6234 12 26L12 18Z" fill="#8C9293"/>
</svg>
