<svg width="18" height="21" viewBox="0 0 18 21" fill="none" xmlns="http://www.w3.org/2000/svg">
<path fill-rule="evenodd" clip-rule="evenodd" d="M3.22458 0.466486C4.91252 -0.658809 7.12968 0.372839 7.45853 2.26759H10.75C12.2688 2.26759 13.5 3.49881 13.5 5.01759C13.5 5.4318 13.1642 5.76759 12.75 5.76759C12.3358 5.76759 12 5.4318 12 5.01759C12 4.32723 11.4404 3.76759 10.75 3.76759H7.5V16.2676H10.75C11.4404 16.2676 12 15.7079 12 15.0176C12 14.6034 12.3358 14.2676 12.75 14.2676C13.1642 14.2676 13.5 14.6034 13.5 15.0176C13.5 16.5364 12.2688 17.7676 10.75 17.7676H7.45853C7.12968 19.6623 4.91252 20.694 3.22458 19.5687L1.22457 18.2354C0.459528 17.7253 0 16.8667 0 15.9472V4.08796C0 3.16849 0.459528 2.30985 1.22457 1.79982L3.22458 0.466486ZM14.2197 12.2816C13.9268 11.9887 13.9268 11.5138 14.2197 11.2209L14.9393 10.5012L9.75 10.5012C9.33579 10.5012 9 10.1654 9 9.75122C9 9.33701 9.33579 9.00122 9.75 9.00122L14.9393 9.00122L14.2197 8.28155C13.9268 7.98866 13.9268 7.51378 14.2197 7.22089C14.5126 6.928 14.9874 6.928 15.2803 7.22089L16.5732 8.51378C17.2566 9.1972 17.2566 10.3052 16.5732 10.9887L15.2803 12.2816C14.9874 12.5744 14.5126 12.5744 14.2197 12.2816Z" fill="#3949AB"/>
</svg>
