<svg width="24" height="24" viewBox="0 0 24 24" fill="none" xmlns="http://www.w3.org/2000/svg">
<path d="M11.8724 2.00005C14.7265 2.00005 17.0544 4.25672 17.169 7.08267L17.1734 7.30115L17.1741 8.87724C18.9503 9.49409 20.2252 11.1824 20.2252 13.1689V17.4579C20.2252 19.9668 18.1918 21.9999 15.6832 21.9999H8.04224C5.53372 21.9999 3.50024 19.9668 3.50024 17.4579V13.1689C3.50024 11.182 4.77565 9.49345 6.55236 8.8769L6.55244 7.27787C6.56526 4.34987 8.9483 1.98735 11.8724 2.00005ZM15.6832 10.1269H8.04224C6.36208 10.1269 5.00024 11.4885 5.00024 13.1689V17.4579C5.00024 19.1384 6.36208 20.4999 8.04224 20.4999H15.6832C17.3634 20.4999 18.7252 19.1384 18.7252 17.4579V13.1689C18.7252 11.4885 17.3634 10.1269 15.6832 10.1269ZM11.8629 13.453C12.2426 13.453 12.5564 13.7352 12.6061 14.1013L12.6129 14.203V16.424C12.6129 16.8383 12.2772 17.174 11.8629 17.174C11.4832 17.174 11.1695 16.8919 11.1198 16.5258L11.1129 16.424V14.203C11.1129 13.7888 11.4487 13.453 11.8629 13.453ZM11.8692 3.5001C9.83579 3.49123 8.16879 5.08061 8.05824 7.08583L8.05244 7.28115L8.05224 8.626H15.6732L15.6734 7.30115C15.6734 5.20235 13.9712 3.5001 11.8692 3.5001Z" fill="#A4A4A4"/>
</svg>
