<svg width="44" height="44" viewBox="0 0 44 44" fill="none" xmlns="http://www.w3.org/2000/svg">
<rect x="0.5" y="0.5" width="43" height="43" rx="21.5" fill="#F4F4F4"/>
<rect x="0.5" y="0.5" width="43" height="43" rx="21.5" stroke="#F0F1FA"/>
<path fill-rule="evenodd" clip-rule="evenodd" d="M30.8067 17.6229L30.1842 16.5428C29.6577 15.6289 28.4907 15.3136 27.5755 15.838C27.1399 16.0946 26.6201 16.1674 26.1307 16.0404C25.6413 15.9133 25.2226 15.5968 24.9668 15.1606C24.8023 14.8834 24.7139 14.5677 24.7105 14.2453C24.7254 13.7285 24.5304 13.2277 24.17 12.8569C23.8096 12.4862 23.3145 12.2771 22.7975 12.2773L21.5435 12.2773C21.037 12.2773 20.5513 12.4792 20.194 12.8382C19.8367 13.1972 19.6372 13.6839 19.6396 14.1904C19.6246 15.2362 18.7725 16.0761 17.7266 16.076C17.4042 16.0726 17.0885 15.9842 16.8112 15.8197C15.8961 15.2953 14.7291 15.6106 14.2025 16.5245L13.5343 17.6229C13.0084 18.5357 13.3194 19.7019 14.23 20.2316C14.8219 20.5733 15.1865 21.2049 15.1865 21.8883C15.1865 22.5718 14.8219 23.2033 14.23 23.5451C13.3206 24.0712 13.0092 25.2346 13.5343 26.1446L14.1659 27.2339C14.4126 27.6791 14.8266 28.0076 15.3162 28.1467C15.8058 28.2859 16.3306 28.2242 16.7746 27.9753C17.2111 27.7206 17.7312 27.6508 18.2193 27.7815C18.7075 27.9121 19.1232 28.2323 19.3742 28.6709C19.5387 28.9482 19.6271 29.2639 19.6305 29.5863C19.6305 30.6428 20.487 31.4993 21.5435 31.4993L22.7975 31.4993C23.8505 31.4993 24.7055 30.6484 24.7105 29.5954C24.7081 29.0873 24.9089 28.5993 25.2682 28.24C25.6275 27.8807 26.1155 27.6799 26.6236 27.6824C26.9452 27.691 27.2596 27.779 27.5389 27.9387C28.4517 28.4646 29.6179 28.1536 30.1476 27.243L30.8067 26.1446C31.0618 25.7068 31.1318 25.1853 31.0012 24.6956C30.8706 24.206 30.5502 23.7886 30.111 23.5359C29.6718 23.2832 29.3514 22.8658 29.2208 22.3762C29.0902 21.8866 29.1603 21.3651 29.4154 20.9272C29.5812 20.6376 29.8214 20.3975 30.111 20.2316C31.0161 19.7022 31.3264 18.5428 30.8067 17.632L30.8067 17.6229Z" stroke="#8C9293" stroke-width="1.5" stroke-linecap="round" stroke-linejoin="round"/>
<path d="M22.175 24.524C23.6308 24.524 24.811 23.3438 24.811 21.888C24.811 20.4321 23.6308 19.252 22.175 19.252C20.7192 19.252 19.539 20.4321 19.539 21.888C19.539 23.3438 20.7192 24.524 22.175 24.524Z" stroke="#8C9293" stroke-width="1.5" stroke-linecap="round" stroke-linejoin="round"/>
</svg>
